#!OML:ASF F:\VICON\USERDATA\INSTALL\rory3\rory3.ASF
:FULLY-SPECIFIED
:DEGREES
274
root -0.691868 15.2881 -5.1647 -161.983 5.64965 178.37
lowerback 8.08391 2.97029 -4.04314
upperback 3.51438 3.90631 -0.0382016
thorax -1.14118 2.02669 1.86715
lowerneck -9.68731 5.74333 -0.394193
upperneck 46.3262 0.0457945 0.909538
head 19.5657 -2.01289 -0.205676
rclavicle -4.37326e-015 1.66979e-014
rhumerus 36.9506 -65.6812 -54.3339
rradius 16.1887
rwrist 133.199
rhand 21.4217 -0.157006
rfingers 7.12502
rthumb 45.8571 -23.3108
lclavicle -4.37326e-015 1.66979e-014
lhumerus 5.71779 -49.16 2.21472
lradius 18.8724
lwrist -47.8287
lhand 25.7277 33.8496
lfingers 7.12502
lthumb 49.8284 55.1619
rfemur -54.9154 -34.0425 31.2313
rtibia 93.4548
rfoot 27.5245 -41.5819
rtoes 49.4228
lfemur -64.9262 13.1648 -43.1372
ltibia 52.1018
lfoot -17.9578 21.4486
ltoes 4.03091
275
root -0.718005 15.2469 -5.2114 -161.718 5.33321 178.79
lowerback 8.80213 2.80821 -3.36755
upperback 3.12731 3.68166 0.0886815
thorax -1.89383 1.92329 1.59278
lowerneck -9.5029 5.99256 -0.713363
upperneck 46.8589 -0.0267382 1.35593
head 19.8791 -2.11377 0.0314029
rclavicle -7.35503e-015 1.59028e-015
rhumerus 36.4164 -64.3333 -55.2579
rradius 16.2499
rwrist 133.678
rhand 20.3592 0.073544
rfingers 7.12502
rthumb 44.8696 -23.4772
lclavicle -7.35503e-015 1.59028e-015
lhumerus 7.11628 -48.2827 2.75476
lradius 18.9779
lwrist -49.3512
lhand 25.7292 33.6501
lfingers 7.12502
lthumb 49.8298 54.9617
rfemur -57.2259 -34.7244 33.1643
rtibia 94.2509
rfoot 33.3521 -39.0608
rtoes 46.4275
lfemur -65.7309 13.4956 -43.1763
ltibia 53.103
lfoot -18.4542 20.6153
ltoes 4.05431
276
root -0.746171 15.1984 -5.2593 -161.523 5.11785 179.033
lowerback 9.45751 2.70963 -2.80653
upperback 2.82287 3.55644 0.127013
thorax -2.53477 1.86475 1.29018
lowerneck -9.23084 6.13571 -0.584969
upperneck 47.1719 -0.0171037 1.23509
head 20.0269 -2.14894 -0.0702701
rclavicle 6.36111e-015 -7.95139e-015
rhumerus 35.5751 -63.0396 -55.8932
rradius 16.3358
rwrist 133.817
rhand 19.5472 0.312504
rfingers 7.12502
rthumb 44.113 -23.5281
lclavicle 6.36111e-015 -7.95139e-015
lhumerus 8.72415 -47.9244 3.16285
lradius 19.178
lwrist -50.3761
lhand 25.7513 33.6092
lfingers 7.12502
lthumb 49.85 54.9104
rfemur -59.4499 -35.2315 34.8048
rtibia 94.9659
rfoot 37.4938 -36.4875
rtoes 44.9415
lfemur -66.4394 13.7152 -43.3766
ltibia 54.0817
lfoot -18.7639 20.1109
ltoes 3.34252
277
root -0.770424 15.148 -5.30253 -161.457 4.89688 179.237
lowerback 10.4594 2.62325 -2.43435
upperback 2.39614 3.42633 0.221645
thorax -3.51019 1.802 1.13398
lowerneck -8.57021 6.22462 -0.224153
upperneck 47.1958 0.109364 0.730781
head 19.8573 -2.13421 -0.376485
rclavicle -1.72943e-014 0
rhumerus 34.5489 -61.6907 -56.4255
rradius 16.3505
rwrist 133.938
rhand 18.9439 0.48528
rfingers 7.12502
rthumb 43.55 -23.5634
lclavicle -1.72943e-014 0
lhumerus 11.3338 -50.3496 2.33278
lradius 19.467
lwrist -48.4313
lhand 25.8366 33.97
lfingers 7.12502
lthumb 49.9281 55.2303
rfemur -61.5282 -35.6568 36.3009
rtibia 95.695
rfoot 38.5256 -36.4516
rtoes 44.8836
lfemur -66.9052 13.714 -43.3227
ltibia 55.0306
lfoot -19.4533 19.5351
ltoes 4.42429
278
root -0.791414 15.1166 -5.33847 -161.414 4.57924 179.456
lowerback 11.9674 2.54612 -2.06662
upperback 1.59281 3.28643 0.324557
thorax -5.16567 1.72704 0.962143
lowerneck -7.63536 6.46347 -0.246008
upperneck 47.6185 -0.127553 1.06102
head 19.8901 -2.29543 -0.286044
rclavicle 1.05356e-014 1.19271e-015
rhumerus 32.5505 -60.2992 -56.2674
rradius 16.2252
rwrist 134.003
rhand 18.8309 0.436377
rfingers 7.12502
rthumb 43.4444 -23.6506
lclavicle 1.05356e-014 1.19271e-015
lhumerus 13.7687 -52.7179 1.78106
lradius 19.7369
lwrist -47.3635
lhand 25.7453 34.2569
lfingers 7.12502
lthumb 49.8445 55.5609
rfemur -63.6042 -36.2187 37.9885
rtibia 96.1269
rfoot 41.6519 -33.8862
rtoes 41.5874
lfemur -67.3528 14.1417 -43.5403
ltibia 55.8679
lfoot -19.6321 18.9024
ltoes 3.23454
279
root -0.802363 15.0734 -5.36682 -161.308 4.38633 179.489
lowerback 13.3903 2.50179 -2.07386
upperback 0.868705 3.16447 0.427976
thorax -6.72655 1.66614 1.01422
lowerneck -6.95935 6.72117 -0.498334
upperneck 48.0991 -0.346066 1.54955
head 20.0403 -2.4693 -0.0695323
rclavicle 1.70955e-014 -7.95139e-016
rhumerus 30.4623 -58.736 -55.9975
rradius 16.1227
rwrist 133.953
rhand 18.7241 0.549322
rfingers 7.12502
rthumb 43.3447 -23.5737
lclavicle 1.70955e-014 -7.95139e-016
lhumerus 16.3237 -55.5635 1.08963
lradius 20.0188
lwrist -45.7503
lhand 25.1568 35.0599
lfingers 7.12502
lthumb 49.305 56.6401
rfemur -65.9309 -36.6092 39.6842
rtibia 96.4706
rfoot 45.848 -27.3467
rtoes 31.9879
lfemur -67.8456 14.0613 -43.6119
ltibia 56.7308
lfoot -19.7645 19.0039
ltoes 1.01788
